<?xml version="1.0" standalone="no"?>
<!DOCTYPE svg PUBLIC "-//W3C//DTD SVG 20010904//EN"
 "http://www.w3.org/TR/2001/REC-SVG-20010904/DTD/svg10.dtd">
<svg version="1.0" xmlns="http://www.w3.org/2000/svg"
 width="480.000000pt" height="360.000000pt" viewBox="0 0 480.000000 360.000000"
 preserveAspectRatio="xMidYMid meet">
<metadata>
Created by potrace 1.16, written by Peter Selinger 2001-2019
</metadata>
<g transform="translate(0.000000,360.000000) scale(0.100000,-0.100000)"
fill="#000000" stroke="none">
<path d="M1377 2859 c-9 -6 -17 -17 -17 -26 0 -9 77 -94 171 -189 l171 -171
-89 -5 c-110 -5 -170 -35 -206 -101 -22 -42 -22 -43 -22 -537 l0 -495 23 -42
c12 -24 41 -55 64 -70 l42 -28 735 -3 736 -2 146 -146 c118 -118 151 -145 170
-142 14 2 25 11 27 22 3 14 -246 269 -949 973 -525 525 -961 958 -969 963 -9
5 -23 4 -33 -1z m459 -520 l61 -61 -29 -53 c-15 -29 -37 -88 -48 -130 -36
-139 -23 -276 36 -404 145 -316 506 -446 819 -297 l72 33 81 -80 c45 -44 82
-81 82 -83 0 -2 -306 -4 -680 -4 -751 0 -720 -3 -760 63 -19 31 -20 53 -20
502 0 428 2 473 18 504 28 56 69 71 197 71 l109 0 62 -61z m145 -145 l28 -27
-18 -36 c-59 -115 -51 -295 16 -411 120 -205 374 -292 585 -201 l46 19 26 -27
c33 -34 28 -40 -70 -78 -60 -23 -84 -27 -179 -27 -94 0 -120 3 -182 26 -170
61 -304 206 -347 374 -18 70 -20 188 -5 254 11 48 58 160 67 160 3 0 18 -12
33 -26z m343 -343 c286 -287 274 -266 167 -291 -169 -40 -351 52 -433 218 -41
82 -50 191 -23 276 10 31 21 56 24 56 3 0 123 -117 265 -259z"/>
<path d="M2025 2791 c-54 -25 -78 -54 -115 -133 -35 -78 -37 -94 -12 -107 26
-14 38 -3 71 71 17 36 44 77 61 92 l32 26 346 0 c421 0 387 11 456 -146 78
-175 105 -194 281 -194 134 0 174 -12 205 -62 20 -32 20 -45 18 -520 l-3 -488
-26 -25 c-14 -15 -43 -32 -65 -40 -42 -14 -56 -43 -30 -64 11 -9 24 -10 57 -1
56 15 114 73 128 128 8 29 11 188 9 526 l-3 484 -30 44 c-48 68 -87 82 -247
88 -166 6 -167 7 -230 152 -48 110 -91 162 -147 178 -21 6 -180 10 -376 10
-309 0 -344 -2 -380 -19z"/>
<path d="M2325 2549 c-79 -12 -149 -35 -212 -71 -42 -23 -53 -35 -53 -54 0
-39 23 -38 102 0 223 110 465 71 637 -104 102 -104 152 -226 151 -375 0 -104
-14 -165 -60 -257 -34 -69 -35 -98 0 -98 25 0 65 59 98 147 33 90 42 258 18
349 -46 177 -163 326 -316 404 -101 51 -254 76 -365 59z"/>
<path d="M2270 2381 c-82 -26 -100 -38 -100 -67 0 -35 25 -40 75 -16 190 92
431 3 522 -193 39 -84 44 -205 13 -290 -30 -81 -31 -109 -3 -113 68 -10 118
229 77 369 -30 103 -114 215 -199 265 -111 65 -267 83 -385 45z"/>
<path d="M3135 2321 c-71 -30 -89 -128 -34 -187 64 -69 189 -15 189 81 0 77
-84 135 -155 106z"/>
<path d="M1631 986 c-8 -9 -11 -65 -9 -177 l3 -164 25 0 c25 0 25 1 30 110 6
123 0 126 64 -30 30 -75 34 -80 62 -80 l29 0 3 171 c2 152 1 172 -14 178 -33
13 -43 -12 -46 -117 l-3 -102 -43 107 c-47 115 -71 140 -101 104z"/>
<path d="M2472 983 c-6 -14 -9 -289 -3 -336 1 -5 11 -7 24 -5 21 3 22 8 27
108 5 104 5 105 30 105 25 0 25 -1 30 -105 5 -100 6 -105 28 -108 22 -3 22 -2
22 117 0 95 -3 123 -16 135 -20 21 -53 20 -76 -1 -17 -15 -18 -14 -18 33 0 64
-28 97 -48 57z"/>
<path d="M2920 946 c0 -26 -6 -38 -22 -47 l-22 -12 22 -17 c20 -16 22 -28 22
-114 0 -86 2 -96 21 -106 11 -6 30 -10 42 -8 29 4 34 34 8 43 -19 6 -21 14
-21 90 0 75 2 84 20 90 26 8 26 35 1 35 -16 0 -20 8 -23 38 -2 30 -7 38 -25
40 -20 3 -23 -1 -23 -32z"/>
<path d="M1925 888 c-21 -19 -27 -35 -31 -84 -7 -72 9 -140 36 -154 30 -16 86
-12 111 9 22 18 24 26 24 116 0 90 -2 98 -24 116 -32 26 -84 24 -116 -3z"/>
<path d="M2247 903 c-4 -3 -7 -84 -7 -179 0 -148 2 -173 16 -178 27 -10 34 3
34 60 0 50 10 68 25 44 3 -5 19 -10 35 -10 47 0 60 30 60 135 0 66 -4 97 -16
113 -18 26 -56 29 -79 5 -16 -16 -18 -16 -27 0 -9 17 -29 22 -41 10z"/>
<path d="M2717 889 c-21 -19 -28 -36 -33 -85 -7 -71 9 -139 36 -154 30 -16 86
-12 111 9 22 18 24 26 24 115 0 109 -8 124 -72 133 -32 4 -44 1 -66 -18z"/>
<path d="M3059 891 c-21 -17 -24 -29 -27 -108 -3 -78 -1 -91 18 -116 18 -22
29 -27 65 -27 71 0 85 23 85 136 0 88 -1 94 -26 113 -33 26 -84 27 -115 2z"/>
</g>
</svg>
