<?xml version="1.0" encoding="utf-8"?>
<!-- Generator: Adobe Illustrator 24.0.0, SVG Export Plug-In . SVG Version: 6.00 Build 0)  -->
<svg version="1.1" id="Layer_1" xmlns="http://www.w3.org/2000/svg" xmlns:xlink="http://www.w3.org/1999/xlink" x="0px" y="0px"
	 viewBox="0 0 1200 600" style="enable-background:new 0 0 1200 600;" xml:space="preserve">
<style type="text/css">
	.st0{fill:#FFFFFF;}
	.st1{fill:none;stroke:#BEC1C5;stroke-linecap:round;stroke-linejoin:round;}
	.st2{fill-rule:evenodd;clip-rule:evenodd;fill:#FFFFFF;}
	.st3{fill:#BDC0C4;}
	.st4{clip-path:url(#SVGID_2_);}
	.st5{fill:none;stroke:#3D4043;stroke-linecap:round;stroke-linejoin:round;}
	.st6{fill:#D2E3FC;stroke:#D2E3FC;stroke-linecap:round;stroke-linejoin:round;stroke-miterlimit:10;}
	.st7{fill:#3D4043;}
	.st8{fill:#E7E9EC;}
	.st9{fill:none;stroke:#3D4043;stroke-linecap:round;stroke-linejoin:round;stroke-miterlimit:10;}
	.st10{fill:#F2BC41;stroke:#3D4043;stroke-linecap:round;stroke-linejoin:round;stroke-miterlimit:10;}
	.st11{fill:#EAA6BC;}
	.st12{fill:#B3B3B3;}
	.st13{fill:#E7E9EC;stroke:#E7E9EC;stroke-linecap:round;stroke-linejoin:round;}
	.st14{fill-rule:evenodd;clip-rule:evenodd;fill:#BDC0C4;}
	.st15{fill:#4E85EB;stroke:#4E85EB;stroke-linecap:round;stroke-linejoin:round;}
	.st16{fill:none;stroke:#FFFFFF;stroke-linecap:round;stroke-linejoin:round;}
	.st17{fill:#F0F2F3;}
	.st18{fill:none;stroke:#3D4043;stroke-miterlimit:10;}
	.st19{fill:#7F858B;stroke:#3D4043;stroke-miterlimit:10;}
	.st20{fill:#808589;}
	.st21{fill:#75797C;stroke:#3D4043;stroke-miterlimit:10;}
	.st22{opacity:0.5;}
	.st23{fill-rule:evenodd;clip-rule:evenodd;fill:#5F6368;}
	.st24{fill-rule:evenodd;clip-rule:evenodd;fill:#EA4335;}
	.st25{fill-rule:evenodd;clip-rule:evenodd;fill:#80868B;}
	.st26{fill:#D2E3FC;}

		.st27{fill-rule:evenodd;clip-rule:evenodd;fill:#FFFFFF;stroke:#FFFFFF;stroke-linecap:round;stroke-linejoin:round;stroke-miterlimit:10;}
	.st28{fill:none;stroke:#FFFFFF;stroke-linecap:round;stroke-linejoin:round;stroke-miterlimit:10;}
	.st29{fill:#4285F4;}
	.st30{fill-rule:evenodd;clip-rule:evenodd;fill:#4285F4;}
	.st31{fill-rule:evenodd;clip-rule:evenodd;fill:#D2E3FC;}
	.st32{fill-rule:evenodd;clip-rule:evenodd;}
	.st33{fill-rule:evenodd;clip-rule:evenodd;fill:#7F858B;stroke:#3D4043;stroke-miterlimit:10;}
	.st34{fill-rule:evenodd;clip-rule:evenodd;fill:#E7E9EC;}
	.st35{fill-rule:evenodd;clip-rule:evenodd;fill:#9E5A29;}
	.st36{fill-rule:evenodd;clip-rule:evenodd;fill:#F0F2F3;}

		.st37{fill-rule:evenodd;clip-rule:evenodd;fill:none;stroke:#3D4043;stroke-linecap:round;stroke-linejoin:round;stroke-miterlimit:10;}

		.st38{fill-rule:evenodd;clip-rule:evenodd;fill:#FFFFFF;stroke:#3C4043;stroke-linecap:round;stroke-linejoin:round;stroke-miterlimit:10;}
	.st39{fill-rule:evenodd;clip-rule:evenodd;fill:#1F1C1B;}
	.st40{fill-rule:evenodd;clip-rule:evenodd;fill:#D9D9D9;}
	.st41{fill-rule:evenodd;clip-rule:evenodd;fill:#FBBC04;}
	.st42{fill-rule:evenodd;clip-rule:evenodd;fill:#FDFDFD;}
	.st43{fill:none;stroke:#E8EAED;stroke-linecap:round;stroke-linejoin:round;stroke-miterlimit:10;}
	.st44{clip-path:url(#SVGID_4_);}
	.st45{clip-path:url(#SVGID_4_);fill:none;stroke:#BEC1C5;stroke-linecap:round;stroke-linejoin:round;}
	.st46{fill:#E8EAED;}
	.st47{fill:#FFFFFF;stroke:#3C4043;stroke-linecap:round;stroke-linejoin:round;stroke-miterlimit:10;}
	.st48{fill:#80868B;}
	.st49{opacity:0.3;fill:#FFFFFF;}
	.st50{fill:#C2CBE0;}
	.st51{fill:#F2F2F2;}
</style>
<rect x="-5.2" y="-4.5" class="st0" width="1210.5" height="609"/>
<path class="st1" d="M173.5,53.2h853.1c1.5,0,2.7,1.2,2.7,2.7v488.2c0,1.5-1.2,2.7-2.7,2.7H173.5c-1.5,0-2.7-1.2-2.7-2.7V55.9
	C170.8,54.4,172,53.2,173.5,53.2z"/>
<g>
	<path class="st29" d="M482.7,124.7h5.7l10.4,17.3h0.3l-0.3-5v-12.3h4.8v25.8h-5.1l-10.9-18.3h-0.3l0.3,5v13.3h-4.8V124.7z"/>
	<path class="st29" d="M509.4,124.7h16.3v4.6h-11.5v6h10.3v4.6h-10.3v6h11.5v4.6h-16.3V124.7z"/>
	<path class="st29" d="M528.4,124.7h5.4l3.5,14.5l0.4,2.7h0.3l0.6-2.7l4.5-14.5h4.8l4.4,14.5l0.6,2.6h0.3l0.4-2.6l3.5-14.5h5.4
		l-6.7,25.8h-5.2l-4.4-15.6l-0.6-2.8h-0.3l-0.6,2.8l-4.6,15.6h-5L528.4,124.7z"/>
	<path class="st29" d="M580.7,124.7h5.6l9.7,25.8h-5.4l-2.2-6.2h-9.9l-2.2,6.2h-5.4L580.7,124.7z M586.9,139.9l-2.3-6.5l-0.9-3.1
		h-0.3l-0.9,3.1l-2.3,6.5H586.9z"/>
	<path class="st29" d="M599.5,124.7h9.4c1.7,0,3.2,0.3,4.5,1c1.3,0.7,2.3,1.7,3,2.9c0.7,1.2,1.1,2.6,1.1,4.2c0,1.7-0.5,3.1-1.6,4.4
		c-1,1.3-2.4,2.2-3.9,2.8l0,0.3l6.9,9.9v0.3h-5.6l-6.7-9.7h-2.3v9.7h-4.9V124.7z M608.8,136.4c1.1,0,2-0.3,2.7-1
		c0.7-0.7,1-1.5,1-2.6c0-1-0.3-1.8-1-2.5c-0.7-0.7-1.6-1-2.7-1h-4.6v7.1H608.8z"/>
	<path class="st29" d="M622.3,124.7h9.4c1.7,0,3.2,0.3,4.5,1c1.3,0.7,2.3,1.7,3,2.9c0.7,1.2,1.1,2.6,1.1,4.2c0,1.7-0.5,3.1-1.6,4.4
		c-1,1.3-2.4,2.2-3.9,2.8l0,0.3l6.9,9.9v0.3h-5.6l-6.7-9.7h-2.3v9.7h-4.9V124.7z M631.7,136.4c1.1,0,2-0.3,2.7-1
		c0.7-0.7,1-1.5,1-2.6c0-1-0.3-1.8-1-2.5c-0.7-0.7-1.6-1-2.7-1h-4.6v7.1H631.7z"/>
	<path class="st29" d="M645.1,124.7h4.9v25.8h-4.9V124.7z"/>
	<path class="st29" d="M652.9,124.7h5.3l5.3,15.6l0.9,3.3h0.3l1-3.3l5.5-15.6h5.3l-9.4,25.8H662L652.9,124.7z"/>
	<path class="st29" d="M684.7,124.7h5.6l9.7,25.8h-5.4l-2.2-6.2h-9.9l-2.2,6.2H675L684.7,124.7z M690.8,139.9l-2.3-6.5l-0.9-3.1
		h-0.3l-0.9,3.1l-2.3,6.5H690.8z"/>
	<path class="st29" d="M703.4,124.7h4.9v21.2h10.9v4.6h-15.8V124.7z"/>
</g>
<g>
	<path class="st7" d="M468.5,169.1c-0.3-0.3-0.5-0.7-0.5-1.2s0.2-0.9,0.5-1.2c0.3-0.3,0.7-0.5,1.2-0.5c0.5,0,0.9,0.2,1.2,0.5
		c0.3,0.3,0.5,0.7,0.5,1.2s-0.2,0.9-0.5,1.2s-0.7,0.5-1.2,0.5C469.2,169.6,468.8,169.4,468.5,169.1z M468.5,172.2h2.4v14.3h-2.4
		V172.2z"/>
	<path class="st7" d="M474.6,172.2h2.3v2.1h0.1c0.4-0.7,1-1.3,1.8-1.8c0.8-0.5,1.7-0.7,2.6-0.7c1,0,2,0.3,2.7,0.8
		c0.8,0.5,1.3,1.2,1.7,2c0.5-0.8,1.2-1.5,2-2c0.8-0.5,1.8-0.8,2.9-0.8c1.6,0,2.9,0.5,3.7,1.5c0.8,1,1.2,2.4,1.2,4.1v9.2h-2.4v-8.8
		c0-1.3-0.3-2.3-0.8-2.9c-0.5-0.6-1.3-0.9-2.4-0.9c-0.7,0-1.4,0.2-1.9,0.6c-0.6,0.4-1,1-1.4,1.7s-0.5,1.4-0.5,2.2v8.1H484v-8.8
		c0-1.3-0.3-2.3-0.8-2.9c-0.5-0.6-1.3-0.9-2.4-0.9c-0.7,0-1.4,0.2-1.9,0.6c-0.6,0.4-1,1-1.4,1.7c-0.3,0.7-0.5,1.5-0.5,2.3v8h-2.4
		V172.2z"/>
	<path class="st7" d="M500.7,186.3c-0.8-0.4-1.5-1-1.9-1.7c-0.4-0.7-0.7-1.5-0.7-2.5c0-1.5,0.6-2.7,1.7-3.5c1.1-0.8,2.6-1.3,4.3-1.3
		c0.9,0,1.7,0.1,2.4,0.3c0.7,0.2,1.3,0.4,1.7,0.6v-0.9c0-1.1-0.4-1.9-1.1-2.6c-0.7-0.6-1.7-1-2.8-1c-0.8,0-1.5,0.2-2.2,0.5
		c-0.7,0.3-1.2,0.8-1.6,1.4l-1.8-1.3c0.6-0.9,1.3-1.5,2.3-2c1-0.5,2.1-0.7,3.3-0.7c1.9,0,3.5,0.5,4.6,1.5c1.1,1,1.7,2.4,1.7,4.2v9
		h-2.3v-2h-0.1c-0.4,0.7-1,1.3-1.8,1.8c-0.8,0.5-1.7,0.7-2.8,0.7C502.5,187,501.6,186.7,500.7,186.3z M506,184.2
		c0.7-0.4,1.2-1,1.7-1.7c0.4-0.7,0.6-1.4,0.6-2.3c-0.4-0.3-1-0.5-1.7-0.7c-0.7-0.2-1.3-0.3-2.1-0.3c-1.3,0-2.3,0.3-3,0.8
		c-0.7,0.5-1,1.2-1,2.1c0,0.8,0.3,1.4,0.9,1.9c0.6,0.5,1.4,0.7,2.3,0.7C504.6,184.9,505.3,184.6,506,184.2z"/>
	<path class="st7" d="M515.8,191.8c-1.1-0.8-1.8-1.7-2.2-2.8l2.2-0.9c0.3,0.8,0.8,1.5,1.6,2c0.7,0.5,1.6,0.8,2.6,0.8
		c1.5,0,2.6-0.4,3.4-1.3c0.8-0.9,1.2-2.1,1.2-3.6v-1.6h-0.1c-0.5,0.7-1.1,1.3-2,1.8c-0.8,0.5-1.8,0.7-2.9,0.7c-1.2,0-2.4-0.3-3.4-1
		c-1-0.6-1.8-1.5-2.4-2.7c-0.6-1.1-0.9-2.4-0.9-3.9c0-1.4,0.3-2.7,0.9-3.9c0.6-1.1,1.4-2,2.4-2.7c1-0.6,2.1-1,3.4-1
		c1.1,0,2,0.2,2.9,0.7c0.8,0.5,1.5,1.1,2,1.8h0.1v-2h2.3v13.7c0,2.3-0.6,4-1.9,5.2s-2.9,1.8-5,1.8
		C518.3,193,516.9,192.6,515.8,191.8z M522.3,184c0.7-0.4,1.3-1,1.7-1.8c0.4-0.8,0.6-1.8,0.6-2.9c0-1.1-0.2-2.1-0.6-2.9
		c-0.4-0.8-1-1.4-1.7-1.8s-1.5-0.6-2.3-0.6c-0.9,0-1.6,0.2-2.4,0.6c-0.7,0.4-1.3,1-1.7,1.8c-0.4,0.8-0.6,1.8-0.6,2.9
		c0,1.1,0.2,2.1,0.6,2.9c0.4,0.8,1,1.4,1.7,1.8c0.7,0.4,1.5,0.6,2.4,0.6C520.8,184.6,521.6,184.4,522.3,184z"/>
	<path class="st7" d="M533,186c-1.1-0.7-1.9-1.6-2.5-2.7c-0.6-1.1-0.9-2.4-0.9-3.9c0-1.4,0.3-2.7,0.9-3.8c0.6-1.2,1.4-2.1,2.4-2.8
		c1-0.7,2.3-1,3.6-1c1.4,0,2.6,0.3,3.6,0.9c1,0.6,1.8,1.5,2.4,2.6c0.6,1.1,0.8,2.4,0.8,3.8c0,0.3,0,0.5-0.1,0.7h-11.3
		c0.1,1.1,0.3,2,0.8,2.7c0.5,0.7,1.1,1.3,1.8,1.7c0.7,0.4,1.5,0.6,2.3,0.6c1.8,0,3.2-0.9,4.2-2.6l2,1c-0.6,1.2-1.5,2.1-2.5,2.7
		s-2.3,1-3.8,1C535.3,187,534.1,186.6,533,186z M540.8,177.9c0-0.6-0.2-1.2-0.5-1.8c-0.3-0.6-0.8-1.1-1.4-1.5s-1.5-0.6-2.4-0.6
		c-1.1,0-2.1,0.4-2.8,1.1c-0.8,0.7-1.3,1.7-1.5,2.8H540.8z"/>
	<path class="st7" d="M547.3,185.9c-1-0.7-1.8-1.6-2.2-2.8l2.1-1c0.4,0.9,0.9,1.5,1.6,2s1.5,0.7,2.3,0.7c0.9,0,1.7-0.2,2.3-0.5
		c0.6-0.4,1-0.9,1-1.6c0-0.6-0.3-1.1-0.8-1.4c-0.5-0.4-1.3-0.7-2.4-0.9l-1.7-0.4c-1.1-0.3-2.1-0.8-2.8-1.4c-0.7-0.7-1.1-1.5-1.1-2.6
		c0-0.8,0.2-1.5,0.7-2.2c0.5-0.6,1.2-1.1,2-1.4c0.8-0.3,1.7-0.5,2.7-0.5c1.3,0,2.4,0.3,3.3,0.8c1,0.5,1.7,1.3,2.1,2.3l-2.1,1
		c-0.6-1.3-1.8-1.9-3.4-1.9c-0.8,0-1.5,0.2-2.1,0.5s-0.9,0.8-0.9,1.4c0,0.5,0.2,0.9,0.6,1.3c0.4,0.3,1,0.6,1.8,0.8l2.1,0.5
		c1.4,0.4,2.5,0.9,3.2,1.6s1.1,1.6,1.1,2.6c0,0.9-0.3,1.6-0.8,2.3s-1.2,1.2-2,1.5c-0.9,0.4-1.8,0.5-2.9,0.5
		C549.6,187,548.4,186.6,547.3,185.9z"/>
	<path class="st7" d="M570,185.6c-1.6-0.9-2.8-2.2-3.7-3.8c-0.9-1.6-1.4-3.4-1.4-5.3s0.5-3.7,1.4-5.3c0.9-1.6,2.2-2.9,3.7-3.8
		c1.6-0.9,3.4-1.4,5.3-1.4c1.5,0,2.9,0.3,4.1,0.9c1.2,0.6,2.3,1.4,3.2,2.4l-1.7,1.7c-0.8-0.9-1.6-1.6-2.5-2
		c-0.9-0.4-1.9-0.6-3.1-0.6c-1.5,0-2.8,0.3-4,1c-1.2,0.7-2.2,1.6-2.9,2.9c-0.7,1.2-1.1,2.7-1.1,4.3s0.4,3.1,1.1,4.3
		c0.7,1.2,1.7,2.2,2.9,2.9c1.2,0.7,2.5,1,4,1c2.4,0,4.5-1,6.2-3l1.7,1.7c-0.9,1.1-2.1,2-3.4,2.6c-1.4,0.6-2.9,1-4.5,1
		C573.3,187,571.5,186.5,570,185.6z"/>
	<path class="st7" d="M588.4,185.9c-1.1-0.7-2-1.6-2.6-2.7s-0.9-2.4-0.9-3.8s0.3-2.7,0.9-3.8s1.5-2.1,2.6-2.7c1.1-0.7,2.4-1,3.8-1
		c1.4,0,2.7,0.3,3.8,1c1.1,0.7,2,1.6,2.6,2.7c0.6,1.2,0.9,2.4,0.9,3.8s-0.3,2.7-0.9,3.8c-0.6,1.2-1.5,2.1-2.6,2.7s-2.4,1-3.8,1
		C590.7,187,589.5,186.6,588.4,185.9z M594.6,184.1c0.8-0.4,1.4-1.1,1.8-1.9c0.5-0.8,0.7-1.8,0.7-2.9c0-1.1-0.2-2.1-0.7-2.9
		c-0.5-0.8-1.1-1.5-1.8-1.9c-0.8-0.4-1.6-0.7-2.4-0.7c-0.9,0-1.7,0.2-2.5,0.7c-0.8,0.4-1.4,1.1-1.8,1.9c-0.5,0.8-0.7,1.8-0.7,2.9
		c0,1.1,0.2,2.1,0.7,2.9c0.5,0.8,1.1,1.5,1.8,1.9c0.8,0.4,1.6,0.7,2.5,0.7C593,184.8,593.8,184.6,594.6,184.1z"/>
	<path class="st7" d="M602,172.2h2.3v2.1h0.1c0.4-0.7,1-1.3,1.8-1.8c0.8-0.5,1.7-0.7,2.6-0.7c1,0,2,0.3,2.7,0.8
		c0.8,0.5,1.3,1.2,1.7,2c0.5-0.8,1.2-1.5,2-2c0.8-0.5,1.8-0.8,2.9-0.8c1.6,0,2.9,0.5,3.7,1.5c0.8,1,1.2,2.4,1.2,4.1v9.2h-2.4v-8.8
		c0-1.3-0.3-2.3-0.8-2.9c-0.5-0.6-1.3-0.9-2.4-0.9c-0.7,0-1.4,0.2-1.9,0.6c-0.6,0.4-1,1-1.4,1.7s-0.5,1.4-0.5,2.2v8.1h-2.4v-8.8
		c0-1.3-0.3-2.3-0.8-2.9c-0.5-0.6-1.3-0.9-2.4-0.9c-0.7,0-1.4,0.2-1.9,0.6c-0.6,0.4-1,1-1.4,1.7c-0.3,0.7-0.5,1.5-0.5,2.3v8H602
		V172.2z"/>
	<path class="st7" d="M626.7,169.1c-0.3-0.3-0.5-0.7-0.5-1.2s0.2-0.9,0.5-1.2c0.3-0.3,0.7-0.5,1.2-0.5c0.5,0,0.9,0.2,1.2,0.5
		c0.3,0.3,0.5,0.7,0.5,1.2s-0.2,0.9-0.5,1.2s-0.7,0.5-1.2,0.5C627.4,169.6,627,169.4,626.7,169.1z M626.7,172.2h2.4v14.3h-2.4V172.2
		z"/>
	<path class="st7" d="M632.8,172.2h2.3v2.1h0.1c0.4-0.7,1-1.3,1.9-1.8c0.9-0.5,1.8-0.7,2.7-0.7c1.7,0,3,0.5,3.9,1.5
		c0.9,1,1.4,2.4,1.4,4.1v9.2h-2.4v-8.8c0-1.3-0.3-2.3-1-2.9c-0.6-0.6-1.5-0.9-2.6-0.9c-0.8,0-1.5,0.2-2.1,0.6
		c-0.6,0.4-1.1,1-1.4,1.7s-0.5,1.4-0.5,2.2v8h-2.4V172.2z"/>
	<path class="st7" d="M650.5,191.8c-1.1-0.8-1.8-1.7-2.2-2.8l2.2-0.9c0.3,0.8,0.8,1.5,1.6,2c0.7,0.5,1.6,0.8,2.6,0.8
		c1.5,0,2.6-0.4,3.4-1.3c0.8-0.9,1.2-2.1,1.2-3.6v-1.6h-0.1c-0.5,0.7-1.1,1.3-2,1.8c-0.8,0.5-1.8,0.7-2.9,0.7c-1.2,0-2.4-0.3-3.4-1
		c-1-0.6-1.8-1.5-2.4-2.7c-0.6-1.1-0.9-2.4-0.9-3.9c0-1.4,0.3-2.7,0.9-3.9c0.6-1.1,1.4-2,2.4-2.7c1-0.6,2.1-1,3.4-1
		c1.1,0,2,0.2,2.9,0.7c0.8,0.5,1.5,1.1,2,1.8h0.1v-2h2.3v13.7c0,2.3-0.6,4-1.9,5.2s-2.9,1.8-5,1.8
		C652.9,193,651.6,192.6,650.5,191.8z M657,184c0.7-0.4,1.3-1,1.7-1.8c0.4-0.8,0.6-1.8,0.6-2.9c0-1.1-0.2-2.1-0.6-2.9
		c-0.4-0.8-1-1.4-1.7-1.8s-1.5-0.6-2.3-0.6c-0.9,0-1.6,0.2-2.4,0.6c-0.7,0.4-1.3,1-1.7,1.8c-0.4,0.8-0.6,1.8-0.6,2.9
		c0,1.1,0.2,2.1,0.6,2.9c0.4,0.8,1,1.4,1.7,1.8c0.7,0.4,1.5,0.6,2.4,0.6C655.5,184.6,656.3,184.4,657,184z"/>
	<path class="st7" d="M672.5,185.5c-1.3-1-2.2-2.3-2.7-4l2.3-0.9c0.3,1.2,0.9,2.2,1.8,2.9c0.9,0.8,1.9,1.1,3,1.1
		c1.2,0,2.1-0.3,2.9-0.9c0.8-0.6,1.2-1.5,1.2-2.6c0-0.9-0.3-1.7-1-2.3c-0.7-0.6-1.8-1.2-3.3-1.7l-1.3-0.4c-1.4-0.5-2.6-1.2-3.5-2
		c-0.9-0.8-1.3-2-1.3-3.4c0-1,0.3-1.8,0.8-2.6s1.3-1.5,2.2-1.9c0.9-0.5,2-0.7,3.1-0.7c1.2,0,2.2,0.2,3,0.6c0.9,0.4,1.5,1,2.1,1.6
		c0.5,0.6,0.9,1.2,1.1,1.8l-2.2,1c-0.2-0.7-0.6-1.3-1.3-1.9c-0.7-0.6-1.5-0.8-2.6-0.8c-1,0-1.9,0.3-2.6,0.9s-1.1,1.3-1.1,2.2
		c0,0.8,0.3,1.4,0.9,1.9c0.6,0.5,1.5,1,2.8,1.4l1.3,0.4c1.7,0.6,3,1.4,4,2.3s1.4,2.2,1.4,3.8c0,1.3-0.3,2.4-1,3.2
		c-0.7,0.9-1.5,1.5-2.5,1.9c-1,0.4-2,0.6-3.1,0.6C675.2,187,673.8,186.5,672.5,185.5z"/>
	<path class="st7" d="M689.2,185.9c-1.1-0.7-2-1.6-2.6-2.7s-0.9-2.4-0.9-3.8s0.3-2.7,0.9-3.8s1.5-2.1,2.6-2.7c1.1-0.7,2.4-1,3.8-1
		c1.4,0,2.7,0.3,3.8,1c1.1,0.7,2,1.6,2.6,2.7c0.6,1.2,0.9,2.4,0.9,3.8s-0.3,2.7-0.9,3.8c-0.6,1.2-1.5,2.1-2.6,2.7s-2.4,1-3.8,1
		C691.6,187,690.4,186.6,689.2,185.9z M695.5,184.1c0.8-0.4,1.4-1.1,1.8-1.9c0.5-0.8,0.7-1.8,0.7-2.9c0-1.1-0.2-2.1-0.7-2.9
		c-0.5-0.8-1.1-1.5-1.8-1.9c-0.8-0.4-1.6-0.7-2.4-0.7c-0.9,0-1.7,0.2-2.5,0.7c-0.8,0.4-1.4,1.1-1.8,1.9c-0.5,0.8-0.7,1.8-0.7,2.9
		c0,1.1,0.2,2.1,0.7,2.9c0.5,0.8,1.1,1.5,1.8,1.9c0.8,0.4,1.6,0.7,2.5,0.7C693.9,184.8,694.7,184.6,695.5,184.1z"/>
	<path class="st7" d="M705.9,185.9c-1.1-0.7-2-1.6-2.6-2.7s-0.9-2.4-0.9-3.8s0.3-2.7,0.9-3.8s1.5-2.1,2.6-2.7c1.1-0.7,2.4-1,3.8-1
		c1.4,0,2.7,0.3,3.8,1c1.1,0.7,2,1.6,2.6,2.7c0.6,1.2,0.9,2.4,0.9,3.8s-0.3,2.7-0.9,3.8c-0.6,1.2-1.5,2.1-2.6,2.7s-2.4,1-3.8,1
		C708.3,187,707,186.6,705.9,185.9z M712.2,184.1c0.8-0.4,1.4-1.1,1.8-1.9c0.5-0.8,0.7-1.8,0.7-2.9c0-1.1-0.2-2.1-0.7-2.9
		c-0.5-0.8-1.1-1.5-1.8-1.9c-0.8-0.4-1.6-0.7-2.4-0.7c-0.9,0-1.7,0.2-2.5,0.7c-0.8,0.4-1.4,1.1-1.8,1.9c-0.5,0.8-0.7,1.8-0.7,2.9
		c0,1.1,0.2,2.1,0.7,2.9c0.5,0.8,1.1,1.5,1.8,1.9c0.8,0.4,1.6,0.7,2.5,0.7C710.6,184.8,711.4,184.6,712.2,184.1z"/>
	<path class="st7" d="M719.5,172.2h2.3v2.1h0.1c0.4-0.7,1-1.3,1.9-1.8c0.9-0.5,1.8-0.7,2.7-0.7c1.7,0,3,0.5,3.9,1.5
		c0.9,1,1.4,2.4,1.4,4.1v9.2h-2.4v-8.8c0-1.3-0.3-2.3-1-2.9c-0.6-0.6-1.5-0.9-2.6-0.9c-0.8,0-1.5,0.2-2.1,0.6
		c-0.6,0.4-1.1,1-1.4,1.7s-0.5,1.4-0.5,2.2v8h-2.4V172.2z"/>
</g>
<g>
	<g>
		<path class="st17" d="M944.6,404.8c0,15.4-5.6,31.1-10.8,42.4c-4.7,10-14.7,16.4-25.7,16.4H302.5c-26,0-47.1-21.1-47.1-47.1v-35.3
			l10.8-10.8l0.3-31.3c0-1,0.1-2,0.3-2.9c1.3-8,8-14.3,16.3-15c14.4-1.3,33.1-3,33.1-3s100.3-55.5,159.1-63.7s131-5.3,180.6,12.4
			c36.1,12.8,111.6,55.7,111.6,55.7s113,12.7,157.4,43.4c5,3.4,8.8,7.4,11.8,11.7C942.5,386,944.6,395.4,944.6,404.8z"/>
		<path class="st0" d="M343.3,337.9c0,0,87-52,138-59s113.6-4.6,156.5,10.8c28.4,10.1,84.8,41.5,95.1,47.3c0.4,0.2,0.2,0.8-0.2,0.8
			C703.7,336.5,343.3,337.9,343.3,337.9z"/>
		<path class="st18" d="M343.3,337.9c0,0,87-52,138-59s113.6-4.6,156.5,10.8c28.4,10.1,84.8,41.5,95.1,47.3c0.4,0.2,0.2,0.8-0.2,0.8
			C703.7,336.5,343.3,337.9,343.3,337.9z"/>
		<g>
			<path class="st10" d="M266.4,370.6l0.3-31.3c0-1,0.1-2,0.3-2.9c0,0,25.7,3,30.3,19.6C301.8,372.6,277.6,370.6,266.4,370.6z"/>
		</g>
		<path class="st10" d="M944.6,404.8h-31c-7.6,0-14.7-3.9-19-10.1l-5.9-8.8c-2.3-3.4,0.1-8.1,4.4-8.1h43.7
			C942.5,386,944.6,395.4,944.6,404.8z"/>
		<g>
			<line class="st9" x1="538.9" y1="275.6" x2="538.9" y2="463.3"/>
			<line class="st9" x1="583.7" y1="366.1" x2="613.2" y2="366.1"/>
			<line class="st9" x1="442.8" y1="366.1" x2="472.5" y2="366.1"/>
			<g>
				<path class="st9" d="M944.6,404.8c0,15.4-5.6,31.1-10.8,42.4c-4.7,10-14.7,16.4-25.7,16.4H302.5c-26,0-47.1-21.1-47.1-47.1
					v-35.3l10.8-10.8"/>
				<line class="st9" x1="255.4" y1="381.3" x2="312.6" y2="381.3"/>
			</g>
		</g>
		<g>
			<ellipse class="st19" cx="804.2" cy="448.4" rx="50.4" ry="50.4"/>
			<g>
				<circle class="st20" cx="804.2" cy="448.4" r="30.2"/>
			</g>
			<g>
				<circle class="st8" cx="804.2" cy="448.4" r="30.2"/>
			</g>
		</g>
		<g>
			<circle class="st21" cx="408.5" cy="448.4" r="5.9"/>
		</g>
		<g>

				<ellipse transform="matrix(0.4472 -0.8944 0.8944 0.4472 -174.4876 614.2909)" class="st19" cx="409.7" cy="448.3" rx="50.4" ry="50.4"/>
			<g>
				<g>
					<circle class="st8" cx="409.7" cy="448.3" r="30.2"/>
				</g>
			</g>
		</g>
	</g>
	<g>
		<path class="st30" d="M913.1,477.4c-116.9-16.7-154.5,9.3-230.8,0c-102.9-12.5-205-17.2-304.4,0c-50.3,8.7-119.7,3.8-125.5-42.4
			c-2.7-22.2,0.9-71.8,8.1-109.3c4.7-24.2,25.6-19.5,42.1-27.8c53.9-27.2,91.9-57.1,242.7-51.4c96.7,3.6,153.3,14.4,214,46.7
			c30.3,16.1,36.1,24,69,30.5c29.3,5.8,54.7,13.4,82.2,23.8c61.9,18.7,23.5,97.2,29.4,121.7C942.5,479.6,929.5,479.5,913.1,477.4z"
			/>
		<path class="st31" d="M780.9,434.6c-12.3-2.9-7.5-11.4,4.8-8.4c44.1,4.5,90.6,6,136.9,0.1c12.1-3.6,18,4.6,5.9,8.2
			C880,449,829.6,446.3,780.9,434.6z M916.1,349.5c-56.7-24.2-102.4-23.3-141.2-47.6c-72-43.3-142.1-54.7-253.9-55.9
			c-30.9-0.3-60.9,1.5-89.1,4.8c-23.7,3.3-42.6,8.2-58.9,14c52-12.8,117.3-17.1,184.4-3.6c37,7.4,62.6,28.4,78.1,42.1
			c37.8,33.3,98.3,53.1,147.3,60.5C851.3,374,968.5,371.9,916.1,349.5z M347.5,315.5c-49.7-12-117.6,2.7-46,11.8
			c78,9.9,251.1,67.9,314.5-1.2C546,368.2,420.6,333.2,347.5,315.5z M483.9,425.8c-14.3-0.7-17.5-0.5-30.1-18.1
			c-11.4-16-27.9-26.2-41.7-26.2c-20.6,0-29.8,7.3-38.7,19.1c-5.6,7.5-6.4,14.8,5.2,3.5c8.3-8.1,18.6-13,30-13
			c25.1,0,43.3,24.3,48,54.7c2,13,13.7,9.6,12-0.9c-0.9-5.6,3.6-11.1,16.8-10.9c63.7-6.8,102-23.9,137.2-46.5
			C578.1,411.3,531.4,421.1,483.9,425.8z M560.4,302.9c-39.5,23.9-102.7,20.3-142.9,14.8c40.3,16.5,131.5,10.8,179.3-3.9
			C619,307.1,581.2,290.4,560.4,302.9z"/>
	</g>
</g>
</svg>
