<?xml version="1.0" standalone="no"?>
<!DOCTYPE svg PUBLIC "-//W3C//DTD SVG 20010904//EN"
 "http://www.w3.org/TR/2001/REC-SVG-20010904/DTD/svg10.dtd">
<svg version="1.0" xmlns="http://www.w3.org/2000/svg"
 width="1080.000000pt" height="1080.000000pt" viewBox="0 0 1080.000000 1080.000000"
 preserveAspectRatio="xMidYMid meet">

<g transform="translate(0.000000,1080.000000) scale(0.100000,-0.100000)"
fill="#000000" stroke="none">
<path d="M0 5400 l0 -5400 5400 0 5400 0 0 5400 0 5400 -5400 0 -5400 0 0
-5400z m5900 2050 c113 -11 257 -29 320 -40 152 -27 361 -72 356 -77 -2 -2
-82 7 -177 21 -374 54 -686 76 -1084 76 -588 0 -1043 -76 -1337 -225 -121 -61
-170 -96 -253 -179 -104 -104 -157 -215 -173 -360 l-7 -61 -90 -12 c-49 -7
-93 -11 -96 -10 -8 2 271 618 300 664 24 37 95 82 149 93 116 26 608 89 862
110 406 34 883 34 1230 0z m-119 -115 c320 -22 635 -58 872 -102 87 -15 88
-16 141 -74 64 -69 164 -216 213 -312 25 -51 113 -261 113 -272 0 0 -107 7
-237 16 -563 41 -1400 51 -1938 24 -297 -15 -382 -22 -665 -51 -630 -66 -1173
-214 -1456 -399 -99 -64 -97 -51 5 24 298 221 839 395 1414 455 318 34 533 39
1137 30 857 -13 1144 -11 1260 10 211 38 275 109 210 236 -85 167 -339 282
-740 335 -241 31 -684 53 -1175 56 -174 1 -206 3 -155 10 214 29 680 36 1001
14z m-2551 -518 c24 -12 25 -17 22 -80 -6 -117 -29 -158 -44 -82 -17 78 -62
125 -121 125 -39 0 -127 -30 -148 -51 -24 -24 -24 -34 1 -59 15 -15 33 -20 78
-20 51 0 63 -4 110 -39 55 -42 134 -66 180 -55 l27 7 -34 -37 c-32 -33 -36
-34 -52 -20 -38 34 -122 56 -236 62 -129 6 -167 21 -178 71 -9 42 26 113 73
149 26 20 52 29 96 33 110 11 200 9 226 -4z m4305 -19 c31 -16 75 -60 91 -90
20 -39 18 -94 -6 -118 -24 -24 -41 -28 -165 -33 -102 -5 -188 -29 -224 -61
-16 -15 -21 -13 -55 17 l-38 32 58 1 c66 1 137 30 174 70 20 20 33 24 86 24
66 0 94 15 94 50 0 43 -121 90 -190 75 -40 -9 -75 -54 -90 -114 -20 -85 -34
-65 -46 70 l-7 76 29 12 c35 13 258 5 289 -11z m-1385 -263 c348 -24 832 -64
838 -70 3 -3 -13 -5 -35 -5 -55 0 -502 -47 -627 -66 -335 -50 -373 -100 -127
-167 140 -38 329 -46 551 -23 325 35 508 95 715 235 44 30 91 27 120 -6 13
-16 49 -57 80 -93 31 -36 72 -93 91 -126 33 -58 77 -201 67 -216 -11 -19 -21
-2 -42 72 -59 203 -166 275 -346 236 -66 -14 -118 -31 -420 -135 -475 -164
-812 -157 -1172 22 -147 73 -162 88 -123 119 55 45 255 81 675 125 239 24 271
29 255 35 -70 29 -1186 43 -1575 20 -453 -27 -846 -71 -1184 -133 -118 -22
-215 -38 -217 -36 -8 7 246 69 436 107 326 65 619 102 945 120 219 12 822 4
1095 -15z m-2493 -221 c-3 -3 -12 -4 -19 -1 -8 3 -5 6 6 6 11 1 17 -2 13 -5z
m-1652 -437 c26 -14 48 -37 63 -67 22 -44 22 -44 22 -570 0 -490 -2 -528 -19
-566 -10 -23 -34 -52 -52 -65 -32 -23 -45 -24 -206 -29 -156 -5 -174 -7 -192
-25 -11 -11 -23 -33 -27 -48 l-6 -28 43 8 c24 4 109 8 189 8 164 -1 189 -8
237 -72 l28 -36 3 -362 3 -362 34 -33 c19 -19 35 -38 35 -42 0 -5 -53 -7 -117
-6 l-118 3 -5 393 -5 394 -24 19 c-20 16 -40 19 -135 19 -115 -1 -133 -6 -154
-47 -9 -15 -12 -132 -12 -402 l0 -381 -120 0 c-66 0 -120 4 -120 8 0 4 18 26
40 47 l40 39 0 1070 0 1070 -42 43 -42 43 309 0 c302 0 311 -1 350 -23z m945
-59 l0 -82 -43 42 -43 42 -167 0 -167 0 0 -620 0 -620 125 0 125 0 0 -45 0
-45 -125 0 -125 0 0 -410 0 -410 168 0 168 0 34 35 c19 19 38 35 42 35 5 0 8
-35 6 -77 l-3 -78 -327 -3 c-181 -1 -328 1 -328 5 0 4 18 24 40 44 l40 37 0
1073 0 1073 -42 43 -42 43 332 0 332 0 0 -82z m690 60 c18 -13 43 -36 54 -51
21 -28 21 -33 26 -1067 l5 -1038 24 -26 c23 -25 30 -26 123 -26 l98 0 0 1115
0 1115 122 0 122 0 -37 -38 -37 -38 0 -1080 0 -1080 35 -34 c19 -19 35 -38 35
-43 0 -5 -113 -7 -262 -5 -244 3 -266 5 -303 24 -22 12 -49 36 -60 55 -20 33
-20 57 -25 1072 l-5 1039 -28 24 c-25 22 -37 24 -123 24 l-94 0 -2 -1117 -3
-1118 -117 -3 c-65 -1 -118 1 -118 6 0 4 16 23 35 42 l35 34 0 1080 0 1080
-37 38 -37 38 270 0 c265 0 272 -1 304 -22z m1520 -60 l0 -82 -43 42 -43 42
-102 0 -102 0 0 -1075 0 -1075 41 -45 42 -45 -162 0 c-88 0 -161 4 -161 8 0 4
18 26 40 47 l40 39 0 1073 0 1073 -107 0 -107 0 -38 -37 -38 -37 0 77 0 77
370 0 370 0 0 -82z m1640 -717 c0 -954 -19 -851 158 -851 122 1 138 5 160 47
9 16 12 230 12 812 l0 791 122 0 122 0 -42 -43 -42 -42 -2 -1065 -3 -1065 -22
-31 c-46 -65 -68 -69 -363 -69 l-265 0 -3 85 -3 85 43 -42 44 -43 181 0 181 0
26 31 26 31 0 224 0 224 -42 -7 c-56 -10 -305 -10 -340 0 -42 11 -96 64 -108
105 -6 24 -10 310 -10 792 l0 754 -37 38 -37 38 122 0 122 0 0 -799z m1349
778 c20 -11 48 -36 61 -56 l25 -37 3 -995 c2 -548 0 -1019 -3 -1048 -8 -64
-38 -110 -90 -137 -37 -19 -57 -21 -245 -21 -218 0 -239 4 -283 53 -47 51 -46
37 -46 1107 0 1064 0 1056 44 1105 40 45 69 50 289 50 192 0 211 -2 245 -21z
m451 -1069 l0 -1091 25 -24 c23 -24 30 -25 139 -25 l114 0 26 31 26 31 0 1084
0 1084 122 0 122 0 -42 -43 -42 -42 -2 -1065 -3 -1065 -22 -31 c-44 -62 -74
-69 -303 -69 -172 0 -210 3 -235 17 -41 22 -70 56 -84 97 -8 25 -11 324 -11
1080 l0 1045 -37 38 -37 38 122 0 122 0 0 -1090z m-2653 734 c15 -11 38 -38
50 -60 22 -38 23 -47 23 -346 l0 -308 126 0 125 0 -3 -42 -3 -43 -122 -3 -123
-3 0 -369 0 -370 54 0 c44 0 61 5 83 24 l28 24 3 266 3 266 122 0 121 0 -41
-42 -42 -43 -3 -237 c-3 -263 -4 -265 -78 -315 -29 -20 -45 -23 -141 -23
l-109 0 0 -128 0 -128 35 -34 c19 -19 35 -38 35 -42 0 -4 -70 -8 -155 -8 -85
0 -155 4 -155 8 0 4 18 26 40 47 l41 40 -3 120 -3 120 -200 5 c-227 6 -238 9
-275 84 -19 40 -20 60 -20 394 0 257 3 352 11 352 7 0 17 7 24 16 9 13 6 26
-12 63 -24 46 -24 48 -21 343 3 283 4 298 24 325 11 15 36 38 55 51 33 23 38
23 256 20 207 -3 223 -4 250 -24z m-2397 -2199 c6 -3 10 -17 10 -30 l0 -24
-25 24 c-34 35 -102 35 -142 1 -24 -21 -28 -31 -28 -80 0 -49 4 -59 33 -88 27
-27 40 -33 76 -33 32 0 51 6 68 23 28 26 40 28 31 7 -9 -25 -61 -47 -109 -47
-120 0 -182 123 -107 213 14 16 39 33 56 39 32 9 119 6 137 -5z m224 -102 c26
-65 55 -124 64 -130 13 -11 8 -13 -33 -13 -41 0 -46 2 -32 13 14 11 14 16 2
45 -13 30 -17 32 -63 32 -43 0 -50 -3 -60 -25 -17 -36 -15 -53 6 -58 9 -3 -5
-5 -33 -6 -46 -1 -48 0 -29 14 12 8 43 66 70 130 27 63 51 115 55 115 3 0 27
-53 53 -117z m247 91 c25 -23 24 -69 -2 -95 l-21 -21 33 -48 c18 -27 42 -53
54 -59 18 -8 16 -10 -13 -10 -29 -1 -36 5 -67 54 -46 72 -75 76 -75 10 0 -31
5 -47 18 -54 13 -8 6 -10 -33 -10 -39 0 -46 2 -32 10 14 8 17 26 17 115 0 84
-3 106 -15 110 -33 13 -12 20 51 18 46 -1 71 -7 85 -20z m336 7 c34 -18 40
-57 13 -93 -20 -27 -21 -33 -9 -56 8 -14 28 -41 45 -59 l31 -33 -26 0 c-21 0
-34 11 -61 52 -19 29 -43 54 -52 56 -15 3 -18 -4 -18 -47 0 -39 4 -51 18 -54
9 -3 -8 -5 -38 -5 -30 0 -47 2 -37 5 15 4 17 18 17 119 0 97 -2 114 -16 114
-8 0 -13 4 -10 8 8 13 118 7 143 -7z m278 7 c4 -4 4 -15 1 -25 -6 -14 -9 -15
-15 -4 -5 7 -29 16 -55 18 l-46 6 0 -48 0 -47 45 4 c42 3 45 2 45 -21 0 -20
-3 -22 -12 -13 -7 7 -27 12 -45 12 l-33 0 0 -55 c0 -45 3 -55 18 -57 35 -3 77
4 91 15 10 9 13 7 10 -8 -4 -18 -14 -20 -94 -22 -66 -2 -85 0 -72 8 14 8 17
26 17 115 0 84 -3 106 -15 110 -8 4 -15 9 -15 13 0 8 167 8 175 -1z m145 -61
c30 -34 70 -77 87 -97 l32 -35 1 88 c0 69 -3 89 -15 93 -27 11 -16 19 25 20
22 1 40 -2 40 -7 0 -5 -7 -9 -15 -9 -12 0 -15 -20 -15 -118 0 -65 -3 -121 -6
-125 -3 -3 -40 33 -81 81 -42 48 -82 94 -89 102 -12 12 -14 1 -14 -77 0 -79 2
-92 18 -96 9 -3 -5 -5 -33 -5 -27 0 -43 2 -35 5 26 10 30 26 30 126 0 78 -3
99 -15 103 -24 10 -17 26 8 19 12 -3 47 -34 77 -68z m390 46 c0 -27 -6 -29
-27 -7 -9 8 -25 14 -37 12 -20 -3 -21 -10 -24 -111 -3 -104 -2 -108 20 -117
18 -7 11 -9 -32 -9 -42 0 -51 2 -37 10 14 9 17 26 17 120 l0 109 -27 -6 c-16
-4 -32 -11 -37 -15 -17 -15 -23 -10 -19 14 4 21 9 22 104 22 96 0 99 -1 99
-22z m199 -85 c24 -61 52 -119 63 -130 17 -17 17 -18 -29 -18 -32 0 -43 3 -34
9 11 7 12 17 5 43 -9 31 -13 33 -59 36 -38 3 -52 -1 -62 -14 -19 -26 -16 -62
5 -67 9 -3 -4 -5 -30 -6 -47 -1 -47 0 -30 17 10 10 40 69 67 130 27 62 51 112
54 112 3 0 26 -50 50 -112z m191 100 c0 -4 -7 -8 -15 -8 -12 0 -15 -19 -15
-110 l0 -110 38 0 c21 0 48 7 60 16 24 17 27 13 12 -17 -9 -17 -21 -19 -98
-18 -48 0 -80 3 -72 6 26 10 30 25 30 120 0 68 -4 95 -15 107 -21 20 -20 21
30 22 25 0 45 -3 45 -8z m329 6 c25 -5 31 -11 31 -33 l0 -26 -18 23 c-14 18
-26 23 -53 20 -50 -5 -52 -37 -3 -75 67 -51 84 -71 84 -101 0 -40 -29 -63 -81
-64 -46 0 -69 18 -69 56 0 18 4 16 26 -11 27 -35 63 -43 84 -18 19 23 8 47
-40 83 -73 56 -85 88 -45 127 26 27 35 29 84 19z m251 -19 c0 -23 -1 -23 -30
-9 -16 9 -42 14 -57 12 -25 -3 -28 -7 -28 -43 0 -38 2 -40 33 -43 18 -2 40 2
48 9 11 9 14 9 13 -2 -1 -20 -17 -57 -18 -41 -1 7 -16 12 -42 12 l-42 0 5 -50
c3 -28 8 -53 12 -57 12 -12 79 -3 97 13 19 17 24 9 13 -20 -5 -13 -23 -16 -98
-15 -50 1 -83 3 -73 6 15 4 17 18 17 119 0 95 -3 114 -15 114 -8 0 -15 3 -15
8 0 4 41 8 90 8 88 2 90 1 90 -21z m190 0 c26 -24 26 -76 0 -100 -19 -17 -19
-18 11 -61 16 -24 39 -50 51 -59 22 -15 22 -15 -8 -15 -27 0 -37 8 -68 55 -48
72 -76 76 -76 10 0 -38 4 -47 23 -55 17 -7 10 -9 -33 -9 -42 0 -51 2 -37 10
14 9 17 26 17 119 0 91 -3 110 -15 110 -8 0 -15 4 -15 9 0 5 29 7 65 6 46 -1
71 -7 85 -20z m170 14 c0 -4 -5 -9 -12 -11 -8 -3 0 -33 26 -96 22 -51 40 -91
42 -90 4 5 64 171 64 180 0 4 -7 8 -15 8 -8 0 -15 3 -15 8 0 4 18 7 40 7 40 0
52 -8 27 -18 -7 -3 -33 -56 -56 -118 -24 -63 -47 -118 -51 -122 -4 -5 -31 48
-60 117 -29 69 -57 126 -61 126 -5 0 -9 3 -9 8 0 4 18 7 40 7 22 0 40 -3 40
-6z m290 -1 c0 -4 -7 -8 -15 -8 -12 0 -15 -19 -15 -110 0 -93 3 -110 18 -119
13 -8 4 -10 -38 -10 -30 0 -48 3 -40 6 26 10 30 25 30 115 0 95 -5 118 -27
118 -8 0 -12 3 -10 8 7 10 97 11 97 0z m260 -3 c6 -3 10 -17 10 -30 l0 -24
-25 24 c-34 35 -102 35 -142 1 -24 -21 -28 -31 -28 -80 0 -49 4 -59 33 -88 27
-27 40 -33 76 -33 32 0 51 6 68 23 28 26 40 28 31 7 -9 -25 -61 -47 -109 -47
-120 0 -182 123 -107 213 14 16 39 33 56 39 32 9 119 6 137 -5z m230 -10 c0
-23 -1 -23 -27 -9 -16 7 -43 14 -60 14 -32 0 -33 -1 -33 -46 l0 -47 48 5 c48
5 49 4 44 -21 -3 -14 -7 -20 -9 -13 -3 7 -21 12 -44 12 l-39 0 0 -55 c0 -45 3
-55 18 -57 33 -2 77 4 87 13 15 15 23 10 18 -11 -5 -18 -14 -20 -97 -20 -67 1
-86 3 -73 11 14 9 17 26 17 119 0 91 -3 110 -15 110 -8 0 -15 3 -15 8 0 4 41
8 90 8 88 2 90 1 90 -21z m182 3 c4 -7 8 -20 8 -28 -1 -11 -6 -8 -20 8 -28 33
-84 28 -88 -8 -2 -20 6 -32 42 -57 57 -40 80 -75 72 -108 -8 -31 -38 -47 -89
-47 -46 1 -45 0 -57 41 -10 37 2 42 18 6 21 -46 93 -44 100 3 2 16 -10 31 -48
58 -78 56 -91 96 -43 134 30 24 89 22 105 -2z"/>
<path d="M1590 5229 c0 -559 1 -591 18 -583 9 5 64 10 122 11 128 4 144 7 170
35 20 21 20 33 20 547 -1 398 -4 530 -13 542 -25 33 -55 39 -186 39 l-131 0 0
-591z"/>
<path d="M7785 5808 c-46 -26 -44 11 -45 -1066 l0 -1023 25 -24 c23 -24 30
-25 138 -25 110 0 115 1 141 26 l26 27 0 1019 0 1020 -29 29 c-29 28 -32 29
-133 29 -59 0 -112 -6 -123 -12z"/>
<path d="M5575 5480 c-48 -19 -50 -29 -53 -284 -4 -267 0 -318 29 -347 17 -17
34 -19 164 -19 l145 0 0 284 c0 307 -4 337 -51 361 -31 16 -198 20 -234 5z"/>
<path d="M5549 4714 l-24 -26 0 -320 0 -320 28 -24 c27 -23 35 -24 168 -24
l139 0 0 370 0 370 -143 0 c-141 0 -144 0 -168 -26z"/>
<path d="M3692 3262 c-12 -28 -22 -53 -22 -56 0 -3 18 -6 40 -6 45 0 47 5 21
69 l-18 43 -21 -50z"/>
<path d="M3930 3285 c0 -54 1 -55 28 -55 35 0 52 16 52 50 0 32 -28 60 -58 60
-20 0 -22 -5 -22 -55z"/>
<path d="M4280 3284 l0 -55 33 3 c30 3 32 6 35 43 4 42 -14 65 -50 65 -15 0
-18 -9 -18 -56z"/>
<path d="M5286 3257 c-9 -23 -16 -46 -16 -50 0 -4 18 -7 40 -7 22 0 40 3 40 7
0 16 -33 93 -40 93 -4 0 -15 -19 -24 -43z"/>
<path d="M6240 3285 c0 -54 1 -55 28 -55 35 0 52 16 52 50 0 32 -28 60 -58 60
-20 0 -22 -5 -22 -55z"/>
</g>
</svg>
